<?xml version="1.0" encoding="UTF-8"?>
<svg version="1.1" xmlns="http://www.w3.org/2000/svg" width="500" height="500">
<path d="M0 0 C165 0 330 0 500 0 C500 165 500 330 500 500 C335 500 170 500 0 500 C0 335 0 170 0 0 Z " fill="#FEFEFE" transform="translate(0,0)"/>
<path d="M0 0 C5.69762168 3.54757576 8.99426209 8.65441324 11 15 C11.43124821 21.99546443 10.06669448 28.26562486 8.5090332 35.06542969 C8.24396469 36.25366837 7.97889618 37.44190704 7.70579529 38.66615295 C6.98030423 41.91012395 6.24727586 45.15220971 5.51064324 48.39365673 C4.73568757 51.81159357 3.97013818 55.23163715 3.20341492 58.65142822 C1.91188116 64.40579189 0.61401371 70.15869614 -0.68823242 75.91064453 C-2.34561865 83.23134185 -3.99306646 90.55423574 -5.63710308 97.87794113 C-7.06432166 104.23557868 -8.49581151 110.5922534 -9.92815042 116.94873905 C-10.38105393 118.95922824 -10.83347796 120.9698249 -11.28586388 122.9804306 C-12.92385103 130.25231201 -14.57522945 137.52082928 -16.25576401 144.78300476 C-16.74197595 146.88467884 -17.22539783 148.98700086 -17.70566177 151.09004211 C-18.34520654 153.87610757 -19.00119278 156.65770671 -19.66333008 159.43847656 C-19.84293368 160.23104733 -20.02253729 161.02361809 -20.20758343 161.84020615 C-22.23213429 170.15106714 -26.55920563 175.66344448 -33.828125 180.12109375 C-39.36622006 182.36222934 -46.70657766 181.72901345 -52.3125 179.875 C-59.0927205 176.83024402 -63.55783391 172.4480764 -66.24707031 165.49536133 C-66.96905146 163.10256971 -67.11075568 161.33958338 -67.1328125 158.86328125 C-67.89450076 150.23241118 -72.10762973 142.30120919 -75.5 134.4375 C-76.21082975 132.75766635 -76.92047578 131.07733128 -77.62890625 129.39648438 C-80.11412853 122.22062487 -80.11412853 122.22062487 -84 116 C-84.35304199 116.97348389 -84.70608398 117.94696777 -85.06982422 118.94995117 C-86.3847551 122.57508789 -87.7007629 126.19983289 -89.01708984 129.82446289 C-89.58574145 131.39076308 -90.15410424 132.95716815 -90.72216797 134.52368164 C-91.54057409 136.78038995 -92.36003147 139.03671416 -93.1796875 141.29296875 C-93.55793167 142.33701118 -93.55793167 142.33701118 -93.94381714 143.40214539 C-94.96831572 146.21967762 -96.00634628 149.01502817 -97.17285156 151.77734375 C-98.32426881 154.87135278 -98.04139468 157.53163099 -97.875 160.8125 C-97.79259658 167.98159756 -98.69170667 172.42147478 -103.578125 177.70703125 C-109.6644424 183.34098722 -115.81844933 185.61656211 -124.09375 185.34375 C-131.88753828 184.42190407 -138.40695403 181.78891458 -143.62890625 175.828125 C-147.53663994 170.61781341 -148.08395369 167.61195341 -147.5625 161.265625 C-147.4969272 149.83016988 -152.19659265 139.4153456 -156.0625 128.8125 C-156.88621811 126.50289397 -157.70772283 124.19249742 -158.52709961 121.88134766 C-160.19528836 117.18391026 -161.8743087 112.49057773 -163.5625 107.80029297 C-165.81719802 101.52633618 -168.02927758 95.23839006 -170.21875 88.94140625 C-170.70823624 87.5338784 -170.70823624 87.5338784 -171.20761108 86.09791565 C-172.15993776 83.35718524 -173.11129253 80.61611902 -174.0625 77.875 C-175.27191306 74.39269714 -176.48272541 70.91088641 -177.6953125 67.4296875 C-177.97879547 66.6156395 -178.26227844 65.80159149 -178.55435181 64.96287537 C-180.08514573 60.57948171 -181.64120334 56.20674868 -183.23530579 51.84597778 C-183.90654371 50.00866182 -184.57046981 48.16867967 -185.23413086 46.32861328 C-185.9964078 44.22009558 -186.77169439 42.11619806 -187.56469727 40.01904297 C-190.08365731 33.00110025 -191.69480564 25.59437842 -189.03320312 18.37915039 C-185.90919912 11.95224999 -181.53031211 8.64747899 -175.1875 5.6875 C-168.04254107 4.14643043 -161.37310665 4.10532371 -155 8 C-148.40412159 14.0440128 -145.19836565 20.23913491 -142.4921875 28.65625 C-142.11820831 29.75739136 -141.74422913 30.85853271 -141.35891724 31.99304199 C-140.17671608 35.48875057 -139.02523099 38.99365849 -137.875 42.5 C-137.09711626 44.82100533 -136.31718392 47.14132512 -135.53515625 49.4609375 C-134.03177047 53.92656244 -132.53872835 58.39542325 -131.05371094 62.8671875 C-128.47206039 70.6148519 -125.75904291 78.31399856 -123 86 C-119.2326414 82.2326414 -117.94140847 76.57535807 -116.09448242 71.63598633 C-115.57779835 70.26595892 -115.05125742 68.89960395 -114.5144043 67.53735352 C-111.54936404 60.01339201 -109.17272073 53.54162815 -110.7043457 45.32910156 C-111.40834877 39.78311539 -108.77786764 35.17791385 -105.8125 30.6875 C-100.41859189 25.53332113 -93.78154036 22.61780243 -86.25390625 22.71484375 C-80.29393335 23.46887845 -74.09796796 26.67436715 -70 31 C-64.72163502 39.96639767 -61.14455411 50.02832037 -57.1875 59.625 C-56.48796304 61.31393998 -55.78809588 63.00274323 -55.08789062 64.69140625 C-53.38811624 68.79270451 -51.69282017 72.89582677 -50 77 C-48.63331272 73.06864924 -47.52148811 69.18893895 -46.64306641 65.12158203 C-46.39585846 63.98665314 -46.14865051 62.85172424 -45.89395142 61.68240356 C-45.5017189 59.86348099 -45.5017189 59.86348099 -45.1015625 58.0078125 C-44.67942809 56.08243699 -44.25728071 54.15706423 -43.83438683 52.23185539 C-42.79724272 47.50763433 -41.76590986 42.78219225 -40.74609375 38.05419922 C-40.17225262 35.39531359 -39.59269727 32.73779559 -39.00692749 30.08151245 C-38.45729143 27.58806048 -37.9158946 25.09277374 -37.38394165 22.5954895 C-35.2960517 13.1964597 -33.18915869 5.77713701 -24.94140625 0.1875 C-16.75328102 -4.82093072 -8.56512035 -3.54120942 0 0 Z " fill="#A36BE3" transform="translate(411,114)"/>
<path d="M0 0 C0.95583984 -0.04125 1.91167969 -0.0825 2.89648438 -0.125 C10.27839716 -0.20551166 14.75528192 1.66153194 20.3125 6.5 C23.97677169 10.15843687 25.04431638 13.27249106 26.0625 18.3125 C26.30484375 19.47394531 26.5471875 20.63539063 26.796875 21.83203125 C26.96703125 22.71246094 27.1371875 23.59289062 27.3125 24.5 C28.12332031 23.81035156 28.93414062 23.12070313 29.76953125 22.41015625 C32.6880658 19.93097575 35.61328018 17.45982278 38.54199219 14.99267578 C39.66638476 14.04472539 40.78957519 13.09534581 41.91113281 12.14404297 C43.35235711 10.92335689 44.8010226 9.71147284 46.25 8.5 C47.08402344 7.79875 47.91804688 7.0975 48.77734375 6.375 C55.53551545 1.37666037 61.09431388 0.58686821 69.3125 1.5 C77.22258483 3.35129645 82.55726404 10.33424112 87.3125 16.5 C91.05307133 22.77851995 91.18226657 28.35241336 90.3125 35.5 C86.94475192 46.86837711 74.61553806 54.37466319 65.83203125 61.44921875 C63.59068943 63.27356674 61.41476692 65.14872055 59.25 67.0625 C56.3125 69.5 56.3125 69.5 54.3125 69.5 C54.3125 70.16 54.3125 70.82 54.3125 71.5 C52.20129835 73.28386028 50.079654 74.96377831 47.875 76.625 C42.13800768 81.02938387 36.62992923 85.59052169 31.3125 90.5 C32.8492244 94.69458108 35.92072719 96.79546734 39.375 99.375 C40.65120494 100.35225602 41.92587749 101.3315156 43.19921875 102.3125 C43.87130371 102.82941406 44.54338867 103.34632813 45.23583984 103.87890625 C48.77605106 106.64248519 52.22992912 109.50917971 55.6875 112.375 C57.12352241 113.56271224 58.55972118 114.75021126 59.99609375 115.9375 C60.70878418 116.52660156 61.42147461 117.11570312 62.15576172 117.72265625 C65.67448411 120.62239578 69.21091318 123.50017514 72.75 126.375 C73.41273926 126.91431152 74.07547852 127.45362305 74.75830078 128.00927734 C79.22566771 131.63824032 83.73465355 135.20934889 88.296875 138.71875 C92.96470733 142.84381113 95.80741365 147.06638417 96.71875 153.26171875 C96.97730203 161.33069669 95.14632171 166.10294695 90.3125 172.5 C89.83296875 173.17160156 89.3534375 173.84320313 88.859375 174.53515625 C84.56943991 180.08614369 79.14953658 183.06556291 72.3125 184.5 C62.9591832 185.27944307 57.18921004 181.5375641 50.17163086 175.62548828 C49.47561768 175.02720215 48.77960449 174.42891602 48.0625 173.8125 C46.58117449 172.56432948 45.09809015 171.31824344 43.61328125 170.07421875 C42.52781006 169.16422119 42.52781006 169.16422119 41.42041016 168.23583984 C36.85522317 164.47646071 32.09181237 160.98088646 27.3125 157.5 C27.23773438 158.345625 27.16296875 159.19125 27.0859375 160.0625 C26.2037223 167.67376839 25.04315224 173.18406601 19.3125 178.5 C10.60380148 185.18225136 1.92872102 185.22887488 -8.6875 184.5 C-15.36199785 182.91468054 -19.88426048 178.01983681 -23.6875 172.5 C-25.38487505 168.88263426 -25.93452862 166.0541472 -25.92700195 162.07055664 C-25.93073318 161.00917984 -25.93446442 159.94780304 -25.93830872 158.85426331 C-25.93417465 157.71770798 -25.93004059 156.58115265 -25.92578125 155.41015625 C-25.94119705 152.9928329 -25.95750039 150.57551508 -25.97460938 148.15820312 C-25.99107941 144.35510048 -25.99998125 140.55240305 -25.99291992 136.74926758 C-25.99030186 133.07326537 -26.01840436 129.39849412 -26.05078125 125.72265625 C-26.03547112 124.0208596 -26.03547112 124.0208596 -26.01985168 122.28468323 C-26.00034561 115.61049741 -26.00034561 115.61049741 -29.11401367 109.94702148 C-29.96326416 109.13950439 -30.81251465 108.3319873 -31.6875 107.5 C-35.70888431 100.01190508 -35.58378651 91.78037168 -34.6875 83.5 C-33.31451677 79.25479897 -31.63386314 75.10596124 -28.12289429 72.20903015 C-26.1364971 69.84395686 -26.32159825 68.3001082 -26.33447266 65.23754883 C-26.33081696 64.1624556 -26.32716125 63.08736237 -26.32339478 61.97969055 C-26.33269012 60.81721298 -26.34198547 59.65473541 -26.3515625 58.45703125 C-26.33904531 55.99674218 -26.32600798 53.53645571 -26.3125 51.07617188 C-26.30857538 47.19643908 -26.31248313 43.31696391 -26.32714844 39.43725586 C-26.33574006 35.69345839 -26.31399136 31.95073441 -26.2890625 28.20703125 C-26.30240631 27.05467484 -26.31575012 25.90231842 -26.32949829 24.71504211 C-26.25727333 16.80472926 -24.82065555 11.64069766 -19.17398071 5.98371887 C-12.90981581 0.48898352 -8.04882696 0.08511648 0 0 Z " fill="#A26BE3" transform="translate(123.6875,111.5)"/>
<path d="M0 0 C0.33 0 0.66 0 1 0 C1.47753135 7.21602928 1.45020064 13.0491503 -3 19 C-5.12878709 21.30296058 -7.24438632 23.47194508 -10 25 C-10.99 24.67 -11.98 24.34 -13 24 C-13 23.01 -13 22.02 -13 21 C-12.34 21 -11.68 21 -11 21 C-11 20.34 -11 19.68 -11 19 C-10.01 18.34 -9.02 17.68 -8 17 C-6.87580338 14.69153519 -5.87848944 12.44264977 -4.9375 10.0625 C-3.5021647 6.50850856 -2.13997492 3.20996239 0 0 Z " fill="#DE6BD0" transform="translate(312,271)"/>
</svg>
